<svg width="78" height="12" viewBox="0 0 78 12" fill="none" xmlns="http://www.w3.org/2000/svg">
<path fill-rule="evenodd" clip-rule="evenodd" d="M6.65739 0L8.71464 3.87069L13.3148 4.49139L9.98609 7.50431L10.7719 11.7586L6.65739 9.75L2.5429 11.7586L3.3287 7.50431L0 4.49139L4.60015 3.87069L6.65739 0ZM22.6574 0L24.7146 3.87069L29.3148 4.49139L25.9861 7.50431L26.7719 11.7586L22.6574 9.75L18.5429 11.7586L19.3287 7.50431L16 4.49139L20.6001 3.87069L22.6574 0ZM40.7146 3.87069L38.6574 0L36.6001 3.87069L32 4.49139L35.3287 7.50431L34.5429 11.7586L38.6574 9.75L42.7719 11.7586L41.9861 7.50431L45.3148 4.49139L40.7146 3.87069ZM54.6574 0L56.7146 3.87069L61.3148 4.49139L57.9861 7.50431L58.7719 11.7586L54.6574 9.75L50.5429 11.7586L51.3287 7.50431L48 4.49139L52.6001 3.87069L54.6574 0ZM72.7146 3.87069L70.6574 0L68.6001 3.87069L64 4.49139L67.3287 7.50431L66.5429 11.7586L70.6574 9.75L74.7719 11.7586L73.9861 7.50431L77.3148 4.49139L72.7146 3.87069Z" fill="#D9D9D9"/>
<mask id="mask0_886_19" style="mask-type:alpha" maskUnits="userSpaceOnUse" x="0" y="0" width="78" height="12">
<path d="M6.65739 0L8.71464 3.87069L13.3148 4.49139L9.98609 7.50431L10.7719 11.7586L6.65739 9.75L2.5429 11.7586L3.3287 7.50431L0 4.49139L4.60015 3.87069L6.65739 0Z" fill="#D9D9D9"/>
<path d="M22.6574 0L24.7146 3.87069L29.3148 4.49139L25.9861 7.50431L26.7719 11.7586L22.6574 9.75L18.5429 11.7586L19.3287 7.50431L16 4.49139L20.6001 3.87069L22.6574 0Z" fill="#D9D9D9"/>
<path d="M40.7146 3.87069L38.6574 0L36.6001 3.87069L32 4.49139L35.3287 7.50431L34.5429 11.7586L38.6574 9.75L42.7719 11.7586L41.9861 7.50431L45.3148 4.49139L40.7146 3.87069Z" fill="#D9D9D9"/>
<path d="M54.6574 0L56.7146 3.87069L61.3148 4.49139L57.9861 7.50431L58.7719 11.7586L54.6574 9.75L50.5429 11.7586L51.3287 7.50431L48 4.49139L52.6001 3.87069L54.6574 0Z" fill="#D9D9D9"/>
<path d="M72.7146 3.87069L70.6574 0L68.6001 3.87069L64 4.49139L67.3287 7.50431L66.5429 11.7586L70.6574 9.75L74.7719 11.7586L73.9861 7.50431L77.3148 4.49139L72.7146 3.87069Z" fill="#D9D9D9"/>
</mask>
<g mask="url(#mask0_886_19)">
<rect x="-0.342773" width="55" height="12" fill="#EDA836"/>
</g>
</svg>
